<svg width="32" height="23" viewBox="0 0 32 23" fill="none" xmlns="http://www.w3.org/2000/svg">
<path d="M11.8998 12.9854V23H0V15.0938C0 10.8132 0.657675 7.71458 1.97303 5.79792C3.69942 3.24236 6.43288 1.30972 10.1734 0L12.8863 3.35417C10.6256 4.08889 8.96082 5.19097 7.8921 6.66042C6.82338 8.09792 6.22736 10.2063 6.10405 12.9854H11.8998ZM31.0135 12.9854V23H19.1137V15.0938C19.1137 10.8132 19.7714 7.71458 21.0867 5.79792C22.8131 3.24236 25.5466 1.30972 29.2871 0L32 3.35417C29.7392 4.08889 28.0745 5.19097 27.0058 6.66042C25.9371 8.09792 25.341 10.2063 25.2177 12.9854H31.0135Z" fill="black"/>
</svg>
